# xmcd
#
# Track frame offsets:
#	150
#	19635
#	37660
#	61845
#	83747
#	100950
#	124292
#	139985
#	154437
#	178857
#	201775
#	217565
#	241212
#	271757
#
# Disc length: 3841 seconds
# Revision: 0
# Processed by: cddbd v1.5.2PL0 Copyright (c) Steve Scherf et al.
# Submitted via: dBpowerAMP V12.0
#
DISCID=b60eff0e
DTITLE=Blackie and the Rodeo Kings - Let's Frolic
DYEAR=2006
DGENRE=Americana
TTITLE0=Silver Dreams
TTITLE1=House of Soul
TTITLE2=Let's Frolic
TTITLE3=Loving Cup
TTITLE4=I Give It Up Everyday
TTITLE5=Crown of Thorns
TTITLE6=Heaven for a Lonely Man
TTITLE7=That's What I Like
TTITLE8=The Fool Who Can't Forget
TTITLE9=Life Is Golden
TTITLE10=Buried in Your Heart
TTITLE11=October Lies
TTITLE12=Under the Rain
TTITLE13=Into the Grey
EXTD=
EXTT0=
EXTT1=
EXTT2=
EXTT3=
EXTT4=
EXTT5=
EXTT6=
EXTT7=
EXTT8=
EXTT9=
EXTT10=
EXTT11=
EXTT12=
EXTT13=
PLAYORDER=
